<?xml version="1.0" standalone="no"?>
<!DOCTYPE svg PUBLIC "-//W3C//DTD SVG 20010904//EN"
 "http://www.w3.org/TR/2001/REC-SVG-20010904/DTD/svg10.dtd">
<svg version="1.0" xmlns="http://www.w3.org/2000/svg"
 width="401.000000pt" height="401.000000pt" viewBox="0 0 401.000000 401.000000"
 preserveAspectRatio="xMidYMid meet">
<metadata>
Created by potrace 1.11, written by Peter Selinger 2001-2013
</metadata>
<g transform="translate(0.000000,401.000000) scale(0.100000,-0.100000)"
fill="#000000" stroke="none">
<path d="M1556 3437 c3 -10 9 -15 12 -12 3 3 0 11 -7 18 -10 9 -11 8 -5 -6z"/>
<path d="M1533 3413 c-3 -10 -13 -27 -22 -37 -9 -11 -11 -16 -4 -13 14 9 11
-22 -4 -31 -5 -4 -9 -15 -7 -25 2 -15 0 -16 -12 -6 -12 10 -15 10 -12 -2 2 -8
8 -17 13 -21 6 -4 1 -8 -9 -8 -15 0 -17 -3 -8 -12 9 -9 7 -14 -6 -24 -11 -9
-13 -13 -4 -14 7 0 10 -5 7 -10 -4 -6 -10 -8 -15 -5 -5 3 -12 0 -16 -6 -4 -8
-3 -9 4 -5 7 4 12 1 12 -8 0 -9 -5 -16 -11 -16 -6 0 -9 -6 -6 -13 3 -9 -5 -14
-25 -15 -25 -2 -29 0 -24 15 4 10 4 14 0 11 -3 -4 -14 1 -23 10 -11 12 -13 13
-7 2 5 -8 -3 -2 -18 13 -14 15 -26 23 -26 16 0 -6 -7 -8 -16 -5 -12 5 -15 2
-10 -10 5 -14 4 -15 -8 -5 -10 8 -16 9 -21 1 -3 -5 -1 -10 5 -10 6 0 8 -5 5
-10 -4 -6 -11 -7 -17 -4 -6 4 -8 2 -4 -4 3 -5 3 -12 -1 -15 -5 -2 -3 -2 4 -1
7 2 15 -2 19 -8 4 -6 3 -8 -4 -4 -6 3 -13 2 -17 -4 -3 -5 1 -10 9 -10 9 0 16
-5 16 -10 0 -6 -3 -9 -7 -8 -5 2 -9 -1 -10 -7 -2 -5 3 -10 9 -10 7 0 13 -7 13
-17 0 -22 65 -99 78 -91 6 3 7 1 3 -6 -4 -6 -3 -18 4 -26 8 -10 8 -15 -1 -20
-8 -6 -7 -10 2 -16 10 -6 11 -9 2 -9 -7 0 -13 -5 -13 -11 0 -5 6 -7 13 -3 7 5
6 0 -3 -11 -8 -10 -10 -16 -4 -12 7 4 15 0 18 -9 3 -8 2 -12 -3 -9 -5 3 -12 1
-15 -4 -3 -5 1 -12 10 -15 9 -4 14 -9 11 -13 -4 -3 -2 -12 4 -19 7 -8 6 -14
-2 -20 -7 -4 -9 -3 -5 4 3 6 2 13 -3 16 -5 4 -12 2 -15 -3 -4 -5 -1 -13 5 -16
5 -4 8 -13 5 -21 -3 -8 0 -13 6 -11 6 1 13 -4 16 -12 3 -9 0 -11 -8 -6 -9 5
-10 2 -6 -12 5 -15 -1 -25 -20 -37 -14 -10 -23 -23 -20 -31 3 -9 0 -12 -8 -9
-9 3 -16 -6 -20 -27 -3 -18 -9 -29 -13 -26 -12 12 -34 -15 -23 -28 7 -9 5 -16
-7 -26 -16 -12 -17 -12 -8 1 6 9 -2 2 -17 -15 -14 -16 -25 -32 -22 -34 2 -3
11 4 20 15 14 18 14 17 3 -6 -7 -14 -16 -28 -22 -31 -5 -4 -5 -14 2 -26 5 -11
7 -23 4 -27 -12 -12 -8 -66 4 -62 7 3 15 1 18 -5 4 -5 3 -9 -2 -8 -22 4 -25
-3 -7 -17 13 -11 14 -14 3 -11 -9 3 -16 -1 -16 -8 0 -8 3 -14 6 -13 18 2 22
-4 12 -16 -9 -11 -9 -16 0 -21 8 -6 7 -10 -2 -16 -10 -6 -11 -9 -1 -9 6 0 12
-5 12 -11 0 -5 -6 -7 -12 -3 -9 6 -9 3 0 -9 8 -9 11 -21 8 -26 -4 -5 -1 -13 4
-16 7 -5 5 -11 -5 -19 -16 -11 -15 -13 2 -27 17 -13 17 -13 3 6 -14 18 -14 19
2 7 16 -13 16 -15 0 -40 -15 -25 -15 -26 0 -14 15 12 17 11 15 -7 -1 -14 -6
-20 -16 -16 -11 4 -11 2 -3 -8 7 -8 8 -18 4 -22 -4 -5 0 -6 8 -3 11 4 15 -2
15 -18 0 -22 -1 -23 -12 -7 -18 23 -16 8 2 -28 9 -16 12 -29 8 -28 -22 4 -25
-3 -7 -17 19 -15 19 -16 -1 -9 -16 5 -18 4 -7 -6 6 -7 12 -21 12 -30 0 -10 6
-20 13 -22 9 -4 9 -6 -1 -6 -10 -1 -10 -5 2 -16 8 -9 12 -23 9 -32 -4 -11 -3
-14 5 -9 8 5 12 0 12 -14 0 -12 4 -19 9 -16 5 3 12 -1 15 -10 4 -10 2 -13 -7
-8 -8 5 -8 2 2 -9 7 -9 17 -14 22 -11 6 3 8 -6 5 -20 -3 -15 -2 -25 2 -22 10
6 28 -16 27 -34 -1 -8 8 -23 19 -33 12 -10 14 -16 6 -12 -8 4 -6 -1 4 -9 11
-9 16 -16 11 -16 -4 0 0 -9 11 -21 14 -16 16 -22 5 -28 -11 -7 -11 -9 0 -13
12 -4 11 -8 -1 -23 -8 -10 -10 -16 -5 -13 6 4 16 -2 23 -12 10 -16 9 -21 -6
-29 -16 -10 -16 -10 1 -11 20 0 22 -11 5 -28 -9 -9 -9 -12 0 -12 8 0 11 -15 9
-44 -1 -25 1 -42 6 -39 5 3 6 -5 2 -18 -7 -22 -7 -23 11 -9 17 14 18 14 6 -1
-7 -9 -12 -21 -11 -25 1 -5 0 -11 -1 -14 -8 -21 -6 -40 3 -40 7 0 5 -5 -3 -10
-12 -8 -12 -10 5 -10 16 0 17 -2 5 -9 -8 -6 -18 -7 -24 -4 -5 3 -6 1 -2 -6 4
-6 11 -9 14 -7 10 6 7 -42 -3 -51 -4 -5 -5 -3 -1 4 3 6 3 14 -2 16 -4 3 -7
-18 -6 -47 1 -38 -3 -53 -12 -53 -10 0 -11 4 -3 13 7 8 6 14 -2 20 -7 4 -9 3
-5 -4 3 -6 2 -13 -4 -17 -7 -4 -7 -12 0 -26 8 -15 7 -19 -4 -19 -9 0 -18 -11
-22 -25 -3 -14 -10 -23 -14 -20 -4 3 -10 -4 -13 -15 -3 -11 -11 -19 -18 -18
-7 2 -14 -3 -15 -9 -1 -7 -2 -17 -3 -23 0 -5 -9 -6 -18 -3 -16 6 -16 4 -5 -9
11 -14 10 -16 -13 -14 -20 3 -23 1 -14 -10 11 -14 10 -15 -13 -18 -7 -1 -12
-9 -12 -18 1 -10 -4 -14 -12 -11 -10 4 -12 0 -7 -13 4 -11 3 -15 -4 -11 -6 4
-16 0 -23 -8 -7 -8 -16 -13 -20 -10 -5 3 -6 -5 -2 -17 3 -14 1 -19 -6 -14 -8
4 -10 2 -6 -7 3 -8 0 -18 -7 -23 -8 -5 -10 -3 -4 6 5 8 4 11 -3 6 -6 -3 -9
-15 -7 -25 2 -11 -5 -27 -16 -37 -15 -14 -17 -20 -6 -32 7 -10 8 -13 1 -9 -12
7 -29 -21 -19 -31 3 -3 5 0 5 5 0 6 8 10 18 8 9 -2 17 -4 17 -5 0 -1 379 -2
843 -3 463 -1 842 0 842 3 0 3 9 6 20 6 11 0 20 -4 20 -8 0 -5 9 -4 20 2 15 8
20 8 20 -1 0 -7 10 -5 26 6 15 9 23 12 20 6 -9 -14 18 -16 79 -7 11 2 23 -1
26 -6 3 -5 11 -3 17 5 10 12 8 14 -13 12 -14 -2 -25 1 -25 7 0 5 8 7 18 4 21
-7 36 3 40 28 2 13 -1 16 -10 10 -10 -6 -10 -4 1 9 11 14 11 17 0 17 -11 0
-11 2 1 10 10 6 11 10 3 10 -7 0 -13 6 -13 14 0 9 -9 13 -24 12 -19 -2 -24 1
-21 16 2 10 0 16 -4 14 -4 -3 -21 2 -37 10 -16 9 -37 18 -48 20 -10 2 -21 6
-25 10 -3 4 3 4 14 1 17 -6 18 -5 5 6 -18 15 -24 37 -10 37 5 0 10 5 10 10 0
6 11 28 24 49 14 21 22 42 18 47 -4 4 -1 4 6 0 6 -4 12 -2 12 3 0 6 -8 11 -17
12 -15 0 -15 2 2 9 11 5 14 9 6 9 -7 1 -11 7 -8 15 3 7 0 19 -6 25 -9 10 -9
12 3 9 10 -2 16 6 18 25 2 15 7 25 11 23 4 -3 8 1 8 9 0 8 -3 12 -7 10 -4 -2
-7 2 -7 10 0 8 4 12 9 9 4 -3 8 0 8 6 0 6 3 9 8 7 4 -3 8 10 8 29 1 18 -3 31
-7 28 -5 -3 -9 0 -9 5 0 6 10 11 23 12 12 0 16 3 10 6 -7 2 -13 9 -13 14 0 6
5 7 10 4 6 -3 10 -1 10 4 0 6 -5 11 -11 11 -5 0 -7 5 -4 10 4 6 10 8 15 5 10
-6 8 15 -4 34 -6 10 -5 12 3 7 8 -6 11 -2 9 10 -2 11 2 18 8 17 8 -1 10 6 6
19 -3 14 -1 19 6 14 7 -4 7 4 -1 24 -7 17 -13 26 -15 20 -2 -5 -8 -7 -14 -4
-6 4 -8 -2 -3 -17 7 -23 7 -24 -9 -4 -15 20 -15 20 -11 -3 2 -13 0 -20 -6 -17
-5 4 -13 -5 -19 -19 -5 -14 -12 -26 -14 -26 -3 0 -2 7 1 17 4 11 3 14 -5 9 -7
-4 -12 -12 -12 -18 0 -5 -9 -21 -20 -35 -11 -14 -20 -21 -20 -14 0 6 -4 11 -9
11 -5 0 -8 -11 -7 -24 2 -17 -1 -23 -10 -19 -8 3 -18 -5 -23 -18 -5 -13 -10
-18 -10 -11 -1 7 -6 10 -11 7 -6 -4 -8 -10 -5 -15 6 -10 -29 -32 -39 -25 -3 3
-2 -1 4 -7 16 -19 11 -31 -6 -14 -8 9 -20 14 -25 11 -4 -3 -11 6 -15 20 -4 18
-11 24 -21 20 -11 -3 -13 -1 -9 10 3 8 1 15 -3 15 -11 0 -9 19 4 40 8 13 7 13
-8 1 -23 -18 -34 -7 -16 16 12 15 12 16 -5 10 -15 -6 -17 -4 -13 13 3 11 2 18
-2 16 -4 -3 -13 4 -20 16 -7 11 -8 17 -2 13 18 -10 13 3 -9 25 -22 22 -27 45
-7 34 6 -3 0 5 -15 20 -15 14 -25 32 -22 40 3 8 0 17 -7 22 -8 5 -10 3 -4 -6
5 -8 4 -11 -3 -6 -6 4 -9 13 -5 21 3 9 -1 15 -8 15 -11 0 -11 3 1 10 13 8 13
10 -2 10 -9 0 -20 5 -24 12 -5 8 -2 9 11 4 18 -6 18 -6 2 12 -9 10 -17 24 -17
31 0 7 -4 10 -9 7 -5 -3 -12 1 -15 10 -3 8 -2 13 3 10 5 -4 7 3 4 14 -5 17 -8
18 -21 8 -12 -10 -14 -10 -8 0 4 7 2 12 -6 12 -9 0 -9 3 2 10 11 7 11 10 2 10
-7 0 -10 5 -6 12 4 6 3 8 -2 5 -6 -3 -16 -2 -24 4 -11 6 -12 9 -2 9 7 0 10 5
7 11 -4 6 -13 8 -21 5 -8 -3 -11 0 -7 10 3 7 0 14 -6 14 -6 0 -8 7 -4 15 3 9
2 15 -3 14 -5 -1 -16 -1 -24 0 -13 1 -13 2 0 11 13 9 13 10 0 11 -8 1 -18 1
-22 0 -3 0 -5 10 -4 23 2 18 -1 23 -12 18 -12 -4 -14 -1 -8 13 4 11 4 16 0 12
-4 -4 -14 2 -21 13 -8 11 -19 17 -25 14 -7 -5 -9 2 -6 20 4 21 3 24 -8 15 -11
-9 -14 -7 -14 12 0 20 -2 21 -11 9 -9 -12 -10 -11 -6 7 3 15 1 20 -9 16 -8 -3
-14 1 -14 11 0 9 -5 16 -11 16 -5 0 -7 -6 -3 -12 4 -8 3 -9 -2 -5 -5 5 -9 16
-9 25 0 11 -7 16 -17 14 -11 -2 -18 3 -18 14 0 10 -5 14 -16 10 -8 -3 -13 -2
-10 3 3 5 -1 12 -10 15 -8 3 -14 12 -12 20 2 8 -1 14 -7 13 -5 -1 -9 -5 -8 -9
2 -5 -2 -8 -7 -8 -9 0 -13 14 -7 25 4 8 -38 34 -57 35 -11 0 -16 3 -13 7 10 9
-31 35 -43 28 -6 -3 -10 0 -10 7 0 9 -3 9 -10 -2 -8 -13 -10 -12 -10 3 0 9 -5
17 -11 17 -5 0 -7 5 -3 11 4 8 0 8 -15 0 -16 -9 -21 -9 -21 0 0 6 -7 9 -15 5
-8 -3 -14 -2 -14 2 3 20 -2 33 -11 27 -5 -3 -10 -1 -10 4 0 6 -9 11 -21 11
-11 0 -17 5 -14 10 3 6 1 10 -5 10 -17 0 -40 26 -32 35 4 5 2 5 -4 2 -15 -9
-56 22 -50 39 3 7 -4 16 -16 19 -14 5 -17 10 -9 18 8 8 3 19 -17 41 -22 23
-23 28 -8 22 19 -7 19 -6 1 14 -10 11 -13 20 -7 20 7 0 11 3 11 8 -3 20 3 23
18 11 9 -8 14 -9 10 -3 -4 7 2 12 18 12 16 0 27 -8 31 -21 4 -14 8 -16 14 -7
4 7 14 10 22 7 12 -4 15 5 14 41 -1 26 -5 53 -10 61 -7 11 -5 13 9 7 14 -5 16
-4 7 7 -7 8 -9 17 -5 20 3 4 1 7 -6 7 -7 0 -9 5 -6 10 3 6 1 10 -5 10 -6 0 -8
5 -5 10 3 6 1 10 -5 10 -7 0 -10 7 -7 14 4 10 1 13 -8 10 -10 -4 -13 0 -10 15
2 12 0 19 -4 16 -5 -2 -15 3 -22 12 -12 15 -12 16 5 9 19 -7 19 -6 1 14 -10
11 -14 20 -9 21 5 0 0 4 -11 8 -11 4 -20 14 -21 22 -2 34 -5 39 -18 39 -15 0
-52 49 -48 64 2 5 -5 18 -15 29 -10 11 -12 17 -5 13 9 -6 12 -1 10 16 -2 12
-7 29 -12 37 -6 9 -5 12 1 8 6 -4 13 0 17 8 3 8 0 15 -6 15 -7 0 -6 5 2 15 9
10 9 15 1 15 -6 0 -11 5 -11 11 0 5 6 7 13 3 10 -6 10 -4 0 7 -7 7 -13 23 -13
36 0 13 -6 23 -14 23 -9 0 -13 9 -12 25 2 13 -1 22 -5 19 -5 -3 -9 0 -9 6 0 6
-4 9 -9 6 -5 -3 -9 0 -8 7 1 40 -4 58 -15 51 -10 -5 -10 -4 -1 6 10 11 9 16
-5 27 -16 14 -16 14 3 8 16 -5 18 -4 8 6 -7 7 -13 21 -13 32 0 12 4 16 13 11
9 -6 9 -5 0 7 -6 8 -13 25 -15 39 -2 17 -9 25 -23 25 -11 1 -26 4 -33 9 -7 4
-15 1 -19 -11z m-233 -363 c0 -5 -2 -10 -4 -10 -3 0 -8 5 -11 10 -3 6 -1 10 4
10 6 0 11 -4 11 -10z m475 -660 c3 -5 2 -10 -4 -10 -5 0 -13 5 -16 10 -3 6 -2
10 4 10 5 0 13 -4 16 -10z m5 -980 c8 12 10 10 10 -8 0 -13 4 -20 10 -17 6 3
10 1 10 -5 0 -6 5 -8 12 -4 7 4 8 3 4 -5 -4 -6 -12 -8 -18 -5 -6 4 -3 -5 8
-19 10 -15 24 -27 29 -27 6 0 3 -5 -5 -10 -13 -8 -13 -10 2 -10 12 0 15 -5 11
-17 -5 -11 -3 -14 6 -8 10 6 11 2 6 -15 -6 -18 -4 -22 8 -17 11 4 14 0 12 -19
-1 -14 0 -23 2 -20 5 5 43 -30 43 -40 0 -3 -5 -2 -12 2 -7 5 -8 3 -4 -5 5 -7
13 -10 20 -8 7 3 13 -6 14 -22 1 -14 7 -28 13 -29 6 -3 5 -10 -3 -20 -11 -13
-11 -14 0 -8 16 10 13 -25 -3 -36 -6 -5 -5 -8 3 -8 7 0 10 -5 7 -10 -5 -8 -12
-7 -23 2 -13 12 -14 10 -4 -9 9 -16 9 -24 0 -29 -7 -4 -8 -3 -4 4 4 7 3 12 -3
12 -5 0 -13 -5 -16 -10 -4 -6 -11 -8 -16 -5 -5 4 -9 1 -9 -5 0 -7 -7 -10 -15
-6 -8 3 -21 -1 -29 -9 -7 -8 -16 -11 -20 -8 -9 10 -46 11 -40 2 2 -4 -14 -6
-37 -3 -32 4 -39 2 -33 -8 6 -10 4 -10 -9 1 -9 7 -17 10 -17 6 0 -4 -8 -1 -17
6 -10 8 -14 9 -10 2 4 -6 3 -14 -2 -17 -10 -7 -9 13 2 31 4 6 2 15 -4 19 -8 4
-9 3 -5 -4 11 -18 0 -14 -15 5 -8 10 -9 14 -2 10 6 -4 14 -3 18 3 3 5 -2 10
-12 11 -10 0 -13 3 -6 6 9 3 7 11 -7 25 -15 16 -17 25 -9 35 8 9 8 13 0 13 -6
0 -10 3 -10 8 1 4 0 9 -1 12 -7 18 -5 52 3 57 6 3 7 1 3 -5 -4 -7 -2 -12 4
-12 7 0 9 7 6 16 -3 9 -6 18 -6 20 0 3 -6 2 -12 -1 -7 -4 -4 1 6 9 15 12 16
16 5 17 -8 0 -6 4 6 9 15 6 16 9 4 9 -9 1 -16 8 -16 15 0 12 5 13 21 4 19 -10
20 -10 7 6 -8 9 -11 19 -8 23 4 3 2 14 -4 24 -7 15 -6 17 6 13 15 -6 22 11 7
18 -4 2 1 12 12 22 17 17 19 17 13 2 -4 -10 -3 -15 3 -11 6 3 10 13 10 20 0 9
6 12 15 9 8 -4 12 -11 8 -17 -3 -6 -1 -7 5 -3 6 3 9 15 7 26 -3 14 1 17 12 13
11 -5 14 -3 9 6 -6 9 -3 9 13 -1 18 -11 23 -11 31 2z m90 -450 c0 -5 -5 -10
-11 -10 -5 0 -7 5 -4 10 3 6 8 10 11 10 2 0 4 -4 4 -10z m-637 -225 c-3 -9 -8
-14 -10 -11 -3 3 -2 9 2 15 9 16 15 13 8 -4z"/>
<path d="M1610 1136 c0 -2 7 -7 16 -10 8 -3 12 -2 9 4 -6 10 -25 14 -25 6z"/>
<path d="M1625 1070 c3 -5 11 -10 16 -10 6 0 7 5 4 10 -3 6 -11 10 -16 10 -6
0 -7 -4 -4 -10z"/>
<path d="M1153 655 c0 -8 4 -12 9 -9 5 3 6 10 3 15 -9 13 -12 11 -12 -6z"/>
</g>
</svg>
